<svg xmlns="http://www.w3.org/2000/svg" width="32" height="32" viewBox="0 0 32 32">
  <defs>
    <linearGradient id="a" x1="6" y1="26" x2="26" y2="6" gradientUnits="userSpaceOnUse">
      <stop offset="0" stop-color="#41d1ff"/>
      <stop offset="1" stop-color="#bd34fe"/>
    </linearGradient>
    <linearGradient id="b" x1="14" y1="6" x2="24" y2="30" gradientUnits="userSpaceOnUse">
      <stop offset="0" stop-color="#ffea83"/>
      <stop offset="0.08" stop-color="#ffdd35"/>
      <stop offset="1" stop-color="#ffa800"/>
    </linearGradient>
  </defs>
  <path fill="url(#a)" d="M29.884 6.146L16.108 29.384a1.024 1.024 0 0 1-1.712.025L2.096 6.13a1.024 1.024 0 0 1 .848-1.578L16.25 2.867a1.024 1.024 0 0 1 .183-.016h.134a1.024 1.024 0 0 1 .183.016l12.545 1.683a1.024 1.024 0 0 1 .789 1.596Z"/>
  <path fill="url(#b)" d="M22.264 2.007L15.26 3.289a.515.515 0 0 0-.417.518l-.687 11.681a.515.515 0 0 0 .631.532l3.92-.892c.367-.084.699.238.622.61l-1.155 5.856c-.078.39.282.754.657.631l2.644-.873c.375-.124.772.212.679.619l-1.816 7.942c-.112.490.677.784.825.308l5.62-18.016c.2-.64-.12-1.339-.822-1.134l-3.82 1.122c-.254.074-.529-.154-.478-.39l2.48-11.407c.075-.353-.188-.709-.562-.67Z"/>
</svg>